HIERARCHY
ROOT Hips
{
	OFFSET 53.737000 3.300651 55.730499
	CHANNELS 6 Xposition Yposition Zposition Xrotation Yrotation Zrotation
	JOINT spine
	{
		OFFSET 0.000000 -0.458068 7.965679
		CHANNELS 3 Xrotation Yrotation Zrotation
		JOINT spine1
		{
			OFFSET 0.000000 -0.000002 10.243099
			CHANNELS 3 Xrotation Yrotation Zrotation
			JOINT spine2
			{
				OFFSET 0.000000 -0.000001 9.814751
				CHANNELS 3 Xrotation Yrotation Zrotation
				JOINT Neck
				{
					OFFSET 0.000000 -1.201384 25.198601
					CHANNELS 3 Xrotation Yrotation Zrotation
					JOINT Head
					{
						OFFSET 0.000000 -0.000001 7.613152
						CHANNELS 3 Xrotation Yrotation Zrotation
						End Site
						{
							OFFSET 0.000000 6.077327 18.428101
						}
					}
				}
				JOINT RightShoulder
				{
					OFFSET -4.132698 0.575449 10.599197
					CHANNELS 3 Xrotation Yrotation Zrotation
					JOINT RightArm
					{
						OFFSET 0.000000 -0.000002 13.901802
						CHANNELS 3 Xrotation Yrotation Zrotation
						JOINT RightArmRoll
						{
							OFFSET 0.000000 -0.000001 7.017891
							CHANNELS 3 Xrotation Yrotation Zrotation
							JOINT RightForeArm
							{
								OFFSET 0.000000 -0.000003 20.440598
								CHANNELS 3 Xrotation Yrotation Zrotation
								JOINT RightForeArmRoll
								{
									OFFSET 0.000000 -0.000001 7.875168
									CHANNELS 3 Xrotation Yrotation Zrotation
									JOINT RightHand
									{
										OFFSET 0.000000 -0.000003 15.803696
										CHANNELS 3 Xrotation Yrotation Zrotation
										End Site
										{
											OFFSET 0.000000 0.000000 0.100006
										}
									}
								}
							}
						}
					}
				}
				JOINT LeftShoulder
				{
					OFFSET 4.132698 0.575449 10.599197
					CHANNELS 3 Xrotation Yrotation Zrotation
					JOINT LeftArm
					{
						OFFSET 0.000000 -0.000002 13.901802
						CHANNELS 3 Xrotation Yrotation Zrotation
						JOINT LeftArmRoll
						{
							OFFSET 0.000000 -0.000001 7.017883
							CHANNELS 3 Xrotation Yrotation Zrotation
							JOINT LeftForeArm
							{
								OFFSET 0.000000 -0.000003 20.440605
								CHANNELS 3 Xrotation Yrotation Zrotation
								JOINT LeftForeArmRoll
								{
									OFFSET 0.000000 -0.000001 7.875168
									CHANNELS 3 Xrotation Yrotation Zrotation
									JOINT LeftHand
									{
										OFFSET 0.000000 -0.000003 15.803696
										CHANNELS 3 Xrotation Yrotation Zrotation
										End Site
										{
											OFFSET 0.000000 0.000000 0.100006
										}
									}
								}
							}
						}
					}
				}
			}
		}
	}
	JOINT RightUpLeg
	{
		OFFSET -7.060478 1.086100 -1.294701
		CHANNELS 3 Xrotation Yrotation Zrotation
		JOINT RightUpLegRoll
		{
			OFFSET 0.000000 -0.000003 18.530800
			CHANNELS 3 Xrotation Yrotation Zrotation
			JOINT RightLeg
			{
				OFFSET 0.000000 0.000004 -22.947601
				CHANNELS 3 Xrotation Yrotation Zrotation
				JOINT RightLegRoll
				{
					OFFSET 0.000000 -0.000004 23.022598
					CHANNELS 3 Xrotation Yrotation Zrotation
					JOINT RightFoot
					{
						OFFSET 0.000000 -0.000003 19.162498
						CHANNELS 3 Xrotation Yrotation Zrotation
						JOINT RightToeBase
						{
							OFFSET 0.000000 -0.000002 16.018799
							CHANNELS 3 Xrotation Yrotation Zrotation
							End Site
							{
								OFFSET 0.006790 0.894205 7.757820
							}
						}
					}
				}
			}
		}
	}
	JOINT LeftUpLeg
	{
		OFFSET 7.060478 1.086100 -1.294701
		CHANNELS 3 Xrotation Yrotation Zrotation
		JOINT LeftUpLegRoll
		{
			OFFSET 0.000000 -0.000003 18.530899
			CHANNELS 3 Xrotation Yrotation Zrotation
			JOINT LeftLeg
			{
				OFFSET 0.000000 -0.000004 22.947502
				CHANNELS 3 Xrotation Yrotation Zrotation
				JOINT LeftLegRoll
				{
					OFFSET 0.000000 -0.000004 23.235504
					CHANNELS 3 Xrotation Yrotation Zrotation
					JOINT LeftFoot
					{
						OFFSET 0.000000 -0.000003 18.949600
						CHANNELS 3 Xrotation Yrotation Zrotation
						JOINT LeftToeBase
						{
							OFFSET 0.000000 -0.000003 16.018799
							CHANNELS 3 Xrotation Yrotation Zrotation
							End Site
							{
								OFFSET -0.030430 0.894205 7.757812
							}
						}
					}
				}
			}
		}
	}
}
MOTION
Frames: 8
Frame Time: 0.041667
55.496605 -32.227505 97.040604 -3.360953 1.064127 1.943419 -1.100721 0.040414 -0.285007 1.801601 0.071478 -0.579453 3.446632 0.064546 -0.580290 11.795995 0.617062 0.909107 12.756052 -3.178371 1.583749 -11.301683 -71.692746 -13.950603 -60.624370 -118.897160 -59.515878 0.000001 0.000000 -0.000000 12.556756 -12.616386 0.642799 -0.000011 0.000031 -3.000001 -5.000180 -7.998730 0.000134 -12.048986 60.623857 14.304422 -48.290045 119.018628 54.669128 0.000001 0.000010 -0.000001 14.548317 15.675076 -1.493773 -0.000007 -0.000000 3.000001 -5.000157 7.998826 -0.000153 -0.004171 -177.184997 2.235665 -179.999991 0.000005 -1.172001 174.609483 -1.032410 -0.493410 -0.000000 -0.000001 0.040807 68.526748 6.967768 1.971259 25.456863 -7.354133 -0.000000 2.514773 173.393327 -3.113765 -0.000020 -0.000005 -1.218700 -9.111473 2.112085 0.412774 -0.000005 0.000003 -0.168426 70.045878 -6.934367 -1.955299 25.456904 7.353091 0.000005 
55.505005 -32.224514 97.041290 -3.352233 1.058725 1.950021 -1.095662 0.040415 -0.285245 1.811721 0.071668 -0.579224 3.456762 0.064737 -0.580058 11.739058 0.647553 0.899021 12.764684 -3.219660 1.580810 -11.284272 -71.662802 -13.930099 -60.601407 -118.915110 -59.507251 0.000001 0.000000 -0.000000 12.526128 -12.625469 0.641808 -0.000009 0.000031 -3.000001 -5.000182 -7.998731 0.000134 -12.051520 60.633550 14.307843 -48.299949 119.039009 54.677143 -0.000000 0.000011 -0.000001 14.512841 15.674065 -1.489683 -0.000008 -0.000000 3.000001 -5.000163 7.998824 -0.000153 -0.025906 -177.182006 2.232446 -179.999991 0.000005 -1.172001 174.600631 -1.030409 -0.493381 -0.000001 -0.000001 0.040803 68.526516 6.967680 1.971259 25.456866 -7.354131 0.000000 2.482465 173.400143 -3.102205 -0.000020 -0.000004 -1.218760 -9.132170 2.107696 0.413208 -0.000006 0.000003 -0.168388 70.037163 -6.934362 -1.955243 25.456899 7.353091 0.000006 
55.509705 -32.216915 97.043198 -3.344094 1.053284 1.956462 -1.090539 0.040415 -0.285488 1.821951 0.071832 -0.578981 3.466992 0.064903 -0.579812 11.681928 0.678458 0.889095 12.773431 -3.261200 1.578009 -11.266465 -71.632476 -13.909127 -60.577248 -118.933824 -59.497464 -0.000001 -0.000000 0.000000 12.494876 -12.634682 0.640786 -0.000012 0.000030 -3.000000 -5.000181 -7.998733 0.000134 -12.054572 60.643392 14.311899 -48.310263 119.059596 54.685708 -0.000001 0.000011 -0.000001 14.476962 15.673168 -1.485561 -0.000007 -0.000001 3.000001 -5.000163 7.998824 -0.000153 -0.046679 -177.179000 2.229702 -179.999991 0.000005 -1.172001 174.592394 -1.028410 -0.493341 -0.000000 -0.000001 0.040796 68.526065 6.967580 1.971268 25.456865 -7.354131 -0.000001 2.451539 173.406987 -3.090874 -0.000020 -0.000004 -1.218840 -9.151838 2.103375 0.413577 -0.000006 0.000003 -0.168332 70.028256 -6.934342 -1.955296 25.456906 7.353089 0.000004 
55.499203 -32.176910 97.041595 -3.336359 1.047831 1.962801 -1.085380 0.040415 -0.285737 1.832271 0.071978 -0.578729 3.477311 0.065051 -0.579555 11.624803 0.709654 0.879303 12.782387 -3.302908 1.575316 -11.248356 -71.601754 -13.887792 -60.554811 -118.952129 -59.489787 0.000002 0.000000 -0.000000 12.463027 -12.644114 0.639724 -0.000011 0.000030 -3.000001 -5.000186 -7.998734 0.000133 -12.058057 60.653494 14.316449 -48.321017 119.080400 54.694755 0.000001 0.000009 -0.000001 14.440876 15.672281 -1.481424 -0.000006 -0.000001 3.000001 -5.000160 7.998823 -0.000152 -0.066784 -177.174998 2.227288 -179.999991 0.000005 -1.171003 174.584567 -1.027390 -0.494398 -0.000000 -0.000001 0.040788 68.525416 6.967537 1.971200 25.456865 -7.354132 -0.000001 2.421560 173.414828 -3.079666 -0.000020 -0.000004 -1.218930 -9.170776 2.099096 0.413902 -0.000005 0.000003 -0.168263 70.019227 -6.934358 -1.955263 25.456902 7.353091 0.000005 
55.492805 -32.171410 97.039696 -3.328841 1.042358 1.969085 -1.080192 0.040415 -0.285986 1.842631 0.072114 -0.578470 3.487682 0.065189 -0.579292 11.567581 0.741027 0.869620 12.791451 -3.344720 1.572691 -11.230130 -71.570950 -13.866336 -60.531069 -118.971090 -59.480682 0.000000 -0.000000 -0.000000 12.430964 -12.653550 0.638647 -0.000010 0.000030 -3.000000 -5.000175 -7.998730 0.000133 -12.061725 60.663582 14.321232 -48.332058 119.101342 54.704150 0.000002 0.000009 -0.000001 14.404686 15.671391 -1.477283 -0.000004 -0.000001 2.999999 -5.000164 7.998825 -0.000152 -0.086504 -177.172020 2.225061 -179.999991 0.000004 -1.171004 174.576971 -1.025391 -0.494345 -0.000000 -0.000001 0.040779 68.524651 6.967449 1.971332 25.456866 -7.354133 -0.000000 2.392132 173.421686 -3.068590 -0.000020 -0.000004 -1.219040 -9.189305 2.094841 0.414199 -0.000005 0.000003 -0.168187 70.009999 -6.934366 -1.955341 25.456901 7.353089 0.000006 
55.483105 -32.153511 97.051102 -3.321386 1.036896 1.975352 -1.075010 0.040415 -0.286236 1.853011 0.072247 -0.578210 3.498052 0.065325 -0.579028 11.510260 0.772460 0.860012 12.800530 -3.386549 1.570090 -11.211904 -71.540037 -13.844856 -60.507355 -118.990064 -59.471625 -0.000002 -0.000000 0.000000 12.398909 -12.663087 0.637583 -0.000015 0.000030 -3.000000 -5.000174 -7.998733 0.000133 -12.065475 60.673766 14.326108 -48.343102 119.122269 54.713534 0.000003 0.000011 -0.000001 14.368396 15.670599 -1.473142 -0.000005 -0.000001 3.000001 -5.000160 7.998826 -0.000152 -0.106125 -177.168004 2.222876 -179.999991 0.000005 -1.171003 174.569445 -1.024386 -0.494386 0.000000 -0.000001 0.040770 68.523900 6.967401 1.971270 25.456866 -7.354132 -0.000000 2.362841 173.429541 -3.057499 -0.000020 -0.000004 -1.219150 -9.207723 2.090595 0.414486 -0.000006 0.000003 -0.168111 70.000867 -6.934373 -1.955311 25.456906 7.353090 0.000005 
55.499203 -32.145111 97.051300 -3.313815 1.031433 1.981659 -1.069832 0.040415 -0.286484 1.863361 0.072386 -0.577953 3.508412 0.065466 -0.578768 11.453042 0.803835 0.850450 12.809510 -3.428337 1.567474 -11.193837 -71.509232 -13.823558 -60.485143 -119.008465 -59.464262 -0.000001 -0.000001 0.000000 12.366846 -12.672525 0.636476 -0.000011 0.000029 -3.000001 -5.000181 -7.998732 0.000134 -12.069124 60.683956 14.330862 -48.353966 119.143142 54.722762 0.000001 0.000010 -0.000001 14.332206 15.669702 -1.468996 -0.000005 -0.000002 3.000001 -5.000161 7.998824 -0.000152 -0.125939 -177.165012 2.220601 -179.999991 0.000005 -1.170006 174.561808 -1.023381 -0.494428 -0.000000 -0.000001 0.040761 68.523238 6.967321 1.971296 25.456866 -7.354132 -0.000000 2.333277 173.436398 -3.046421 -0.000020 -0.000004 -1.219250 -9.226349 2.086338 0.414784 -0.000006 0.000003 -0.168035 69.991749 -6.934379 -1.955282 25.456902 7.353090 0.000005 
55.493404 -32.139912 97.041809 -3.305959 1.025990 1.988032 -1.064679 0.040415 -0.286731 1.873651 0.072537 -0.577703 3.518702 0.065620 -0.578514 11.395926 0.835034 0.840886 12.818400 -3.470006 1.564805 -11.176087 -71.478701 -13.802612 -60.461285 -119.027289 -59.454884 0.000002 0.000000 -0.000000 12.335191 -12.681841 0.635377 -0.000015 0.000030 -3.000001 -5.000180 -7.998730 0.000134 -12.072481 60.693969 14.335273 -48.365895 119.163210 54.733168 0.000002 0.000011 -0.000001 14.296131 15.668881 -1.464875 -0.000007 -0.000002 3.000001 -5.000161 7.998827 -0.000152 -0.146234 -177.161010 2.218086 -179.999991 0.000005 -1.170006 174.553858 -1.022360 -0.494473 -0.000000 -0.000001 0.040753 68.522596 6.967277 1.971227 25.456863 -7.354131 -0.000001 2.303023 173.444253 -3.035195 -0.000020 -0.000005 -1.219350 -9.245496 2.082051 0.415110 -0.000006 0.000003 -0.167969 69.982719 -6.934348 -1.955342 25.456899 7.353091 0.000004 
